<?xml version="1.0" standalone="no"?>
<!DOCTYPE svg PUBLIC "-//W3C//DTD SVG 20010904//EN"
 "http://www.w3.org/TR/2001/REC-SVG-20010904/DTD/svg10.dtd">
<svg version="1.0" xmlns="http://www.w3.org/2000/svg"
 width="800.000000pt" height="800.000000pt" viewBox="0 0 800.000000 800.000000"
 preserveAspectRatio="xMidYMid meet">
<metadata>
Created by potrace 1.14, written by Peter Selinger 2001-2017
</metadata>
<g transform="translate(0.000000,800.000000) scale(0.100000,-0.100000)"
fill="#000000" stroke="none">
<path d="M3901 6972 c-25 -59 -56 -132 -70 -162 -14 -30 -26 -57 -26 -60 0 -5
-144 -345 -170 -405 -8 -16 -26 -59 -41 -95 -15 -36 -33 -80 -40 -97 -8 -18
-14 -34 -14 -35 0 -2 -8 -21 -19 -43 -19 -39 -19 -40 0 -89 11 -27 25 -58 31
-70 6 -12 10 -21 9 -21 -3 0 8 -30 61 -162 37 -92 43 -103 67 -105 38 -2 102
-11 171 -23 9 -2 43 -6 75 -10 33 -4 69 -9 80 -11 11 -2 43 -7 70 -10 28 -3
61 -8 75 -10 14 -3 36 -7 50 -8 14 -2 50 -7 80 -11 30 -4 64 -9 75 -11 11 -1
40 -5 65 -9 25 -3 56 -8 70 -10 14 -2 62 -9 107 -15 157 -21 208 -28 243 -36
19 -5 56 -54 160 -211 74 -113 141 -211 148 -218 6 -8 12 -16 12 -20 0 -8 43
-69 53 -73 4 -2 7 -7 7 -12 0 -4 31 -54 70 -111 38 -57 75 -111 80 -119 80
-119 127 -185 133 -183 4 1 21 -3 39 -8 28 -9 83 -23 168 -44 8 -2 30 -8 48
-14 18 -5 33 -10 35 -10 1 0 9 -2 17 -4 8 -3 38 -11 65 -17 74 -17 72 -17 175
-44 52 -14 133 -35 180 -47 47 -11 92 -24 100 -27 8 -3 20 -6 25 -7 6 -1 20
-4 32 -9 12 -4 30 -8 40 -10 10 -2 38 -10 63 -17 25 -7 50 -13 55 -15 6 -1
107 -27 225 -58 118 -31 222 -58 230 -60 8 -2 35 -10 60 -17 25 -7 51 -13 58
-15 7 -1 35 -8 62 -15 45 -11 48 -14 38 -33 -6 -11 -15 -25 -20 -30 -5 -6
-117 -175 -250 -376 -133 -201 -247 -368 -252 -372 -7 -5 -7 -8 -1 -8 6 0 28
16 50 36 22 19 54 47 70 62 17 15 57 50 90 77 32 28 66 57 75 65 46 42 60 51
86 55 78 13 205 60 224 84 3 3 25 21 50 40 55 41 103 101 201 246 41 61 76
112 79 115 3 3 46 66 95 140 50 74 93 137 98 138 4 2 7 9 7 16 0 7 8 21 18 32
25 26 142 207 142 218 0 6 -5 11 -12 12 -7 1 -58 14 -113 28 -55 15 -107 28
-115 30 -17 3 -70 16 -85 21 -5 1 -12 3 -15 4 -3 0 -27 7 -55 15 -27 8 -61 17
-75 20 -14 3 -43 10 -65 16 -42 12 -71 19 -175 45 -36 9 -94 25 -130 35 -36
10 -76 21 -90 24 -14 3 -70 17 -125 31 -55 15 -107 28 -115 30 -8 2 -69 18
-135 35 -66 18 -142 38 -170 45 -77 19 -103 32 -110 54 -3 12 -11 21 -16 21
-5 0 -9 4 -9 10 0 5 -25 46 -55 91 -30 45 -55 83 -55 86 0 3 -8 15 -17 28 -22
28 -13 14 -184 275 -78 118 -157 239 -176 268 -19 28 -40 52 -46 53 -7 0 -21
2 -32 4 -11 2 -42 6 -70 9 -27 3 -120 14 -205 24 -85 11 -162 20 -170 20 -8 0
-44 5 -80 11 -67 10 -137 19 -203 26 -21 2 -55 6 -75 9 -43 7 -97 13 -167 21
-27 3 -66 7 -85 10 -19 3 -57 7 -85 10 -27 3 -61 7 -75 9 -14 3 -47 7 -75 11
-64 8 -70 15 -14 16 24 1 69 2 99 4 30 2 79 3 108 4 28 1 52 6 52 11 0 10 -49
121 -141 318 -22 46 -39 85 -39 87 0 2 -20 45 -44 97 -24 51 -58 127 -76 168
-18 41 -44 97 -57 124 l-24 48 -25 -43 c-14 -24 -30 -56 -37 -71 -6 -16 -15
-28 -19 -28 -4 0 -8 -6 -8 -14 0 -8 -6 -21 -12 -28 -7 -7 -29 -44 -48 -81 -19
-37 -37 -67 -40 -67 -3 0 -34 60 -69 133 -56 116 -181 369 -185 374 0 1 -21
-47 -45 -105z m70 -407 c7 -22 14 -42 14 -45 1 -3 7 -18 14 -35 15 -35 55
-138 56 -145 10 -38 19 -67 25 -75 5 -5 14 -29 21 -53 11 -38 10 -44 -7 -61
-10 -10 -59 -60 -108 -110 -49 -50 -94 -91 -100 -91 -6 0 -22 19 -36 41 -24
40 -88 131 -110 156 -5 7 -10 18 -10 24 0 21 214 449 221 441 4 -4 13 -25 20
-47z m1234 -1151 c11 -2 43 -6 70 -9 28 -3 66 -7 85 -10 19 -3 55 -7 80 -10
36 -4 51 -12 80 -44 19 -21 69 -76 110 -121 41 -46 82 -90 90 -99 8 -9 26 -28
39 -43 l24 -27 -37 10 c-20 5 -48 12 -64 14 -15 2 -76 13 -137 25 -60 11 -123
23 -140 25 -146 25 -144 24 -188 84 -23 30 -47 62 -54 71 -7 8 -35 46 -63 83
l-50 68 67 -7 c38 -3 77 -8 88 -10z"/>
<path d="M1410 6471 c0 -11 -5 -23 -10 -26 -6 -4 -8 -11 -5 -16 4 -5 1 -9 -4
-9 -6 0 -11 -4 -11 -10 0 -9 -92 -234 -140 -345 -15 -34 -40 -94 -105 -250 -7
-16 -36 -86 -64 -155 -29 -69 -58 -138 -66 -155 -12 -25 -34 -78 -40 -95 -3
-8 -22 -53 -40 -95 -10 -22 -19 -44 -20 -50 -2 -5 -14 -36 -29 -67 -14 -31
-26 -59 -26 -62 0 -3 -14 -36 -31 -73 -46 -100 -46 -112 6 -258 25 -71 47
-137 50 -145 2 -8 10 -34 18 -57 14 -38 14 -44 -4 -75 -10 -18 -28 -51 -40
-73 -12 -22 -25 -42 -29 -45 -4 -3 -10 -15 -14 -27 -4 -13 -12 -23 -17 -23 -5
0 -9 -5 -9 -12 0 -7 -11 -28 -24 -47 -23 -36 -351 -583 -388 -651 -11 -19 -27
-43 -36 -52 -8 -10 -11 -18 -7 -18 4 0 1 -8 -7 -17 -8 -10 -66 -103 -128 -208
-62 -104 -121 -203 -131 -220 -11 -16 -22 -37 -26 -45 -3 -8 -10 -17 -14 -20
-14 -10 -14 -32 1 -35 8 -1 47 -5 85 -9 39 -4 108 -11 155 -16 47 -5 112 -12
145 -15 33 -3 76 -8 95 -11 19 -3 58 -7 85 -9 186 -18 198 -21 218 -53 9 -15
27 -40 41 -57 27 -32 35 -43 93 -121 21 -28 119 -157 218 -288 99 -130 185
-244 190 -253 6 -9 22 -30 38 -47 15 -17 27 -34 27 -38 0 -3 6 -13 13 -20 7
-7 76 -96 152 -198 77 -102 145 -192 152 -200 23 -28 128 -168 143 -191 8 -12
24 -34 36 -48 29 -36 105 -137 199 -261 44 -58 85 -111 92 -118 7 -7 13 -17
13 -21 0 -4 8 -16 18 -27 10 -10 34 -41 54 -67 l36 -48 29 51 c15 28 77 133
137 233 105 175 121 202 179 294 15 24 27 45 27 48 0 2 20 36 45 75 25 39 45
72 45 74 0 2 34 59 75 126 41 67 75 123 75 125 0 1 29 50 65 108 35 59 61 108
57 110 -4 3 -34 10 -67 17 -33 8 -68 17 -77 22 -9 4 -34 11 -55 14 -21 3 -56
12 -78 19 -22 8 -51 16 -65 19 -14 2 -36 9 -50 14 -19 8 -2 11 75 11 55 0 102
0 105 1 3 0 93 3 200 5 257 5 583 17 817 29 45 2 87 7 93 11 5 3 10 1 10 -5 0
-6 4 -9 8 -6 9 5 62 10 242 21 52 4 118 8 145 10 145 12 212 17 235 20 14 2
54 6 90 10 36 3 79 9 95 12 17 3 48 7 70 9 22 2 60 8 85 15 25 6 55 13 66 15
96 18 278 93 341 140 17 13 35 24 39 24 17 0 160 139 226 220 103 125 103 125
242 336 70 104 130 194 134 199 13 18 47 70 52 80 7 13 83 129 90 135 9 9 31
52 28 54 -4 3 -165 45 -193 50 -11 2 -63 16 -115 31 -52 15 -104 28 -116 29
-11 2 -25 6 -31 9 -5 3 -20 8 -34 10 -13 3 -105 26 -204 52 -99 26 -189 48
-200 50 -11 2 -20 4 -20 5 0 1 -7 3 -15 5 -19 4 -344 88 -470 122 -52 14 -112
29 -132 34 -49 12 -94 23 -198 49 l-85 21 -60 85 c-33 47 -66 91 -72 99 -7 7
-13 16 -13 19 0 3 -7 14 -15 23 -8 10 -51 70 -95 133 -44 63 -87 123 -95 133
-8 9 -15 21 -15 26 0 5 -4 11 -8 13 -4 2 -72 94 -150 205 -79 111 -147 205
-153 208 -5 4 -18 8 -29 11 -11 2 -28 6 -37 8 -10 2 -45 7 -78 10 -57 7 -106
14 -150 22 -20 3 -56 9 -125 19 -19 2 -46 7 -60 10 -14 3 -41 7 -60 9 -19 3
-53 7 -75 10 -66 10 -178 27 -205 31 -70 11 -159 24 -195 30 -22 4 -53 8 -70
10 -16 3 -46 7 -65 10 -19 3 -48 7 -65 10 -119 16 -132 18 -190 30 -11 2 -40
6 -65 9 -25 4 -54 8 -65 10 -11 3 -31 5 -44 5 -13 1 -22 4 -18 7 7 7 244 7
256 -1 6 -3 12 -1 15 4 4 6 18 6 37 1 43 -13 45 4 9 78 -16 34 -30 64 -30 66
0 2 -21 48 -46 103 -69 148 -80 172 -112 243 -61 134 -76 167 -119 258 -23 52
-43 96 -43 98 0 3 -20 45 -44 95 l-44 91 -38 -69 c-21 -37 -42 -69 -46 -71 -4
-2 -8 -7 -8 -12 0 -11 -128 -228 -138 -234 -5 -3 -22 24 -38 59 -15 36 -32 65
-36 65 -4 0 -8 5 -8 11 0 16 -204 428 -212 429 -5 0 -8 -9 -8 -19z m31 -665
c5 -6 9 -18 9 -28 0 -10 4 -26 9 -36 15 -29 27 -63 65 -177 21 -60 58 -171 84
-246 l46 -137 -148 -146 c-81 -80 -151 -146 -155 -145 -8 0 -175 237 -179 253
-1 7 -11 18 -21 25 -21 16 -18 27 40 145 16 32 29 62 29 66 0 5 14 39 31 77
17 37 39 86 49 108 21 48 104 241 115 270 l8 20 5 -20 c2 -11 8 -24 13 -29z
m1394 -1231 c28 -4 61 -8 75 -10 14 -2 45 -6 70 -10 25 -3 65 -8 90 -10 25 -3
59 -7 75 -10 26 -4 83 -12 107 -14 9 -1 65 -62 168 -180 25 -29 56 -65 70 -80
14 -15 42 -47 64 -70 l39 -43 -48 7 c-27 3 -51 8 -55 10 -3 2 -26 6 -51 9 -24
3 -55 8 -69 11 -14 3 -40 8 -59 11 -18 3 -43 8 -55 10 -26 5 -135 24 -156 27
-8 2 -19 5 -25 8 -5 3 -26 6 -45 8 -19 1 -40 9 -46 17 -6 8 -20 26 -30 40 -11
15 -39 54 -63 88 -24 33 -56 77 -71 96 -67 89 -74 103 -54 97 10 -3 42 -9 69
-12z"/>
<path d="M4086 4998 c4 -7 12 -17 16 -23 8 -9 58 -77 103 -140 8 -11 33 -44
55 -74 22 -30 40 -58 40 -62 0 -15 76 -34 220 -54 14 -2 101 -18 194 -35 93
-17 171 -29 173 -26 5 5 -8 21 -164 193 -153 169 -140 159 -223 171 -41 6 -86
13 -100 16 -14 3 -41 7 -60 10 -19 2 -57 8 -85 12 -27 3 -59 8 -70 10 -79 15
-107 16 -99 2z"/>
</g>
</svg>
